<?xml version="1.0" standalone="no"?>
<!DOCTYPE svg PUBLIC "-//W3C//DTD SVG 20010904//EN"
 "http://www.w3.org/TR/2001/REC-SVG-20010904/DTD/svg10.dtd">
<svg version="1.0" xmlns="http://www.w3.org/2000/svg"
 width="1280.000000pt" height="699.000000pt" viewBox="0 0 1280.000000 699.000000"
 preserveAspectRatio="xMidYMid meet">
<g transform="translate(0.000000,699.000000) scale(0.100000,-0.100000)"
fill="#000000" stroke="none">
<path d="M11880 6809 c-611 -182 -1060 -349 -1675 -624 -593 -266 -1867 -865
-1926 -906 -33 -23 -389 -192 -1514 -716 -807 -377 -996 -467 -1150 -547 -51
-27 -400 -196 -2040 -986 -1724 -831 -1881 -911 -2220 -1140 -115 -78 -651
-504 -776 -616 -154 -139 -164 -153 -161 -230 l3 -61 -123 -91 c-68 -50 -138
-106 -155 -124 -43 -44 -51 -86 -25 -118 31 -38 122 -34 285 13 73 21 134 34
141 30 8 -5 26 -23 41 -40 24 -29 32 -33 78 -33 136 0 412 44 749 119 182 41
291 59 250 41 l-23 -10 24 -37 24 -38 74 1 c63 0 99 9 234 56 359 125 654 252
1165 501 195 95 282 127 347 127 123 0 178 18 447 147 144 69 317 152 386 185
301 143 584 280 835 403 l271 132 79 91 80 92 245 121 c135 66 270 136 302
155 46 28 640 328 813 410 28 13 86 44 130 69 44 24 118 65 165 90 47 25 99
53 115 63 17 9 50 29 75 43 54 32 535 290 705 379 66 34 152 80 190 101 39 20
92 47 118 58 l48 21 -2 -116 c-2 -91 1 -118 12 -125 23 -15 99 -10 188 11 82
20 149 45 632 236 524 207 985 440 1483 752 202 126 666 446 786 542 144 115
264 283 315 440 17 51 38 75 301 337 160 159 291 298 302 320 30 59 35 121 17
198 -36 158 -128 282 -238 323 -99 38 -158 31 -427 -49z m-580 -1496 c0 -40
-66 -97 -278 -237 -395 -262 -907 -530 -1497 -783 -235 -101 -543 -223 -564
-223 -28 0 -121 32 -121 41 0 8 2435 1228 2453 1229 4 0 7 -12 7 -27z"/>
</g>
</svg>
